<svg viewBox="0 0 1024 1024" version="1.1" xmlns="http://www.w3.org/2000/svg"><path d="M723.634481 274.300955c13.313923-114.010424-32.135486-279.319279-167.277496-239.855446l78.620423 230.444664z" fill="#FACA5E"></path><path d="M822.544412 679.408359l-199.219532-57.568493-40.203496-125.776746H423.445342l-39.93039 125.002945-184.266972 57.306767a127.096758 127.096758 0 0 0-87.826375 101.640992L73.17537 1023.20344h877.64926l-37.984509-241.425805a127.119517 127.119517 0 0 0-90.295709-102.369276zM669.604987 260.065298c68.936535-29.404425 96.850256 101.09478 5.245914 152.893907z" fill="#EAA063"></path><path d="M677.62748 329.309078c1.137942-100.559948-39.065554-173.433763-39.065554-173.433763l-60.128863 11.925634a495.698979 495.698979 0 0 1-81.305967 9.194573 495.835532 495.835532 0 0 1-81.283207-9.194573l-60.128863-11.971151s-40.146599 72.828297-39.054175 173.433762l-1.137942 92.742285c0 68.128596 76.037294 135.483392 196.465712 120.052897 75.34315 0 166.719904-51.9243 166.719904-120.052897z" fill="#FFBF82"></path><path d="M320.780202 269.157456c-68.936535-29.404425-96.850256 101.083401-5.245914 152.893907z" fill="#EAA063"></path><path d="M650.624112 620.076055a135.802016 135.802016 0 0 1-135.779257 135.802016h-15.476013a135.802016 135.802016 0 0 1-135.802016-135.802016l-153.690466 41.386956 39.554869 361.740429h522.998211l24.499894-369.501194z" fill="#F7543D"></path><path d="M524.210119 835.829887m-34.058608 0a34.058608 34.058608 0 1 0 68.117217 0 34.058608 34.058608 0 1 0-68.117217 0Z" fill="#FACA5E"></path><path d="M595.934613 63.235445c-36.414149-57.63677-116.752864-79.291809-161.656062-48.362541s-56.06641 1.012769-104.861369 18.025003-73.647616 30.121329-86.483603 107.20553c-8.341116 49.989799-130.510585 95.655417-36.414148 170.862014" fill="#FACA5E"></path><path d="M524.19874 50.797737c99.12614-1.638637 201.757143 111.438674 54.234323 117.04873-81.772523 3.117961-97.350951 34.673097-112.451443 72.122773s-19.731917 83.468056-82.466668 56.328136-53.972596 106.522764-129.258848 109.913832-101.743407-35.196551-82.864947-87.621545 103.165835-71.348973 117.685976-135.551669 47.110805-77.755587 102.585485-75.547979c57.522976 2.196228 49.648416-55.326747 132.536122-56.692278z" fill="#FACA5E"></path></svg>