<svg t="1771646259231" class="icon" viewBox="0 0 1024 1024" version="1.1" xmlns="http://www.w3.org/2000/svg" p-id="19192" width="128" height="128"><path d="M785.515708 1023.973547H244.90034a129.27666 129.27666 0 0 1-128.722008-128.978001V191.440388a37.161707 37.161707 0 0 1 38.612336-38.740333h714.392211a37.161707 37.161707 0 0 1 38.612336 38.740333v703.555158A120.14623 120.14623 0 0 1 785.515708 1023.973547zM199.845504 230.052724v664.942822a44.073528 44.073528 0 0 0 45.054836 45.182833h540.615368a44.073528 44.073528 0 0 0 45.054836-45.182833V230.052724z" fill="#666666" p-id="19193"></path><path d="M991.761046 237.30587H38.655001a38.740333 38.740333 0 0 1 0-77.438h946.663545a37.161707 37.161707 0 0 1 38.655001 38.740333 36.137733 36.137733 0 0 1-32.212501 38.697667z" fill="#666666" p-id="19194"></path><path d="M733.677047 238.927161H270.883669a48.980068 48.980068 0 0 1-32.12717-12.799669 42.665564 42.665564 0 0 1-6.4425-38.740333L283.726004 58.281161A80.808579 80.808579 0 0 1 360.865344 0h282.830027a83.49651 83.49651 0 0 1 77.139341 51.625333L772.246717 180.731331a30.505879 30.505879 0 0 1-6.4425 38.740333c-12.842335 12.885-19.284835 19.455497-32.12717 19.455497z m-398.496373-77.437999h340.641867l-32.12717-77.438H360.865344z m-6.4425 658.372325a37.119041 37.119041 0 0 1-38.399008-38.740333V413.087995a38.56967 38.56967 0 1 1 77.139341 0v367.905163a41.55626 41.55626 0 0 1-38.740333 38.740332z m186.405851 0a37.119041 37.119041 0 0 1-38.399008-38.740333V413.087995c0-25.812667 12.799669-45.182833 38.399008-45.182833s38.399008 19.370166 38.399008 45.182833v367.905163a37.119041 37.119041 0 0 1-38.399008 38.740332z m186.405852 0a37.119041 37.119041 0 0 1-38.399008-38.740333V413.087995a37.119041 37.119041 0 0 1 38.399008-38.740332 41.55626 41.55626 0 0 1 38.399008 38.740332v367.905163c6.570497 19.370166-12.714338 38.740333-38.399008 38.740332z" fill="#666666" p-id="19195"></path></svg>